<svg width="150" height="111" viewBox="0 0 150 111" fill="none" xmlns="http://www.w3.org/2000/svg">
<path d="M149 38C149 77.7392 115.895 110 75 110C34.1053 110 1 77.7392 1 38C1 -1.7392 34.1053 -34 75 -34C115.895 -34 149 -1.7392 149 38Z" fill="white" stroke="#72AAE1" stroke-width="2"/>
<path d="M47 76.5205V25.4795H57.8657V76.5205H47Z" fill="#72AAE1"/>
<path d="M53.3483 40.3415H66.5158C69.3885 40.3415 70.5781 36.0754 71.0479 32.9559C71.1651 32.1772 72.0654 31.6752 72.8952 31.9541C73.402 32.1245 73.7421 32.5491 73.7559 33.0287L74.5226 59.5278C74.5608 60.8486 74.2944 62.2719 73.7959 63.5172C73.3072 64.7379 72.6484 66.2297 71.9589 67.0355C71.1971 67.9258 70.4078 66.6722 70.4029 65.5554C70.3817 60.6844 70.0717 50.0989 66.5158 50.0989H53.3483C50.3038 50.0989 47.8358 47.9146 47.8358 45.2202C47.8358 42.5258 50.3038 40.3415 53.3483 40.3415Z" fill="#72AAE1"/>
<path d="M103 62.0959C103 66.3139 101.195 70.3592 97.9815 73.3418C94.7682 76.3244 90.41 78 85.8657 78C81.3214 78 76.9632 76.3244 73.7499 73.3418C70.5366 70.3592 68.7313 66.3139 68.7313 62.0959L80.4617 62.0959C80.4617 63.4262 81.031 64.702 82.0445 65.6427C83.0579 66.5834 84.4324 67.1119 85.8657 67.1119C87.2989 67.1119 88.6734 66.5834 89.6869 65.6427C90.7003 64.702 91.2696 63.4262 91.2696 62.0959H103Z" fill="#72AAE1"/>
<path d="M68.7313 39.5342H80.4328V63.2055H68.7313V39.5342Z" fill="#72AAE1"/>
<path d="M103 39.9041C103 35.6861 101.195 31.6408 97.9815 28.6582C94.7682 25.6756 90.41 24 85.8657 24C81.3214 24 76.9632 25.6756 73.7499 28.6582C70.5366 31.6408 68.7313 35.6861 68.7313 39.9041L80.5032 39.9041C80.5032 38.584 81.0682 37.318 82.0738 36.3845C83.0795 35.4511 84.4435 34.9267 85.8657 34.9267C87.2879 34.9267 88.6518 35.4511 89.6575 36.3845C90.6632 37.318 91.2281 38.584 91.2281 39.9041H103Z" fill="#72AAE1"/>
</svg>
