<svg width="1152" height="727" viewBox="0 0 1152 727" fill="none" xmlns="http://www.w3.org/2000/svg">
<path d="M-0.101365 820C-1.17406 815.248 -1.4188 809.206 -0.101365 802.683V14.835C-1.4188 9.6231 -1.17406 4.79627 -0.101365 1V14.835C3.92501 30.7635 22.5429 50.2883 76.7119 54.9814C148.605 61.21 765.354 90.4499 1064.74 104.291C1098.04 107.925 1162.34 124.119 1153.1 159.83V793C1162.34 837.699 1098.04 788.452 1064.74 793C765.354 810.325 148.605 785.204 76.7119 793C22.5429 798.874 3.92501 782.745 -0.101365 802.683V820Z" fill="#3F71A2"/>
<path d="M-0.101365 802.683C-1.4188 809.206 -1.17406 815.248 -0.101365 820V802.683ZM-0.101365 802.683C3.92501 782.745 22.5429 798.874 76.7119 793C148.605 785.204 765.354 810.325 1064.74 793C1098.04 788.452 1162.34 837.699 1153.1 793V159.83C1162.34 124.119 1098.04 107.925 1064.74 104.291C765.354 90.4499 148.605 61.21 76.7119 54.9814C22.5429 50.2883 3.92501 30.7635 -0.101365 14.835M-0.101365 802.683V14.835M-0.101365 14.835C-1.4188 9.6231 -1.17406 4.79627 -0.101365 1V14.835Z" stroke="#3F71A2"/>
</svg>
